#!OML:ASF I:\Actors\actors\Patient Classification 1\Patient 1\Session 1\Subject1.ASF
:FULLY-SPECIFIED
:DEGREES
911
root 0.795059 17.3912 9.66051 9.35282 -1.78036 -8.80379
lowerback -4.72003 3.27356 6.90067
upperback -8.80514 4.45593 2.16262
thorax -6.2563 1.87143 -1.59556
lowerneck -3.79048 -5.43408 -2.64571
upperneck 8.79387 -7.75908 6.78437
head 3.9984 -3.6591 2.36888
rclavicle -5.98839e-015 1.35174e-014
rhumerus -35.3859 45.6642 -113.874
rradius 99.4522
rwrist -4.49789
rhand 4.54492 -47.4805
rfingers 7.12502
rthumb 29.9358 -795.079
lclavicle -5.98839e-015 1.35174e-014
lhumerus -52.6743 -2.6301 95.6884
lradius 110.31
lwrist 74.724
lhand -14.3397 7.29189
lfingers 7.12502
lthumb 11.8016 36.9394
rfemur -1.63113 24.6954 25.4955
rtibia 2.30978
rfoot -13.977 -27.7022
rtoes 2.35171
lfemur 9.08856 -45.3658 -14.6396
ltibia -4.8349
lfoot -24.92 53.0509
ltoes 9.92348
912
root 0.794413 17.3911 9.66053 9.36041 -1.74612 -8.80143
lowerback -5.18474 3.18111 6.63678
upperback -8.48048 4.27892 2.39968
thorax -5.68585 1.83182 -1.17024
lowerneck -4.06216 -5.28037 -2.54424
upperneck 8.76956 -7.52003 6.43876
head 4.00386 -3.54631 2.23887
rclavicle 2.31957e-014 3.46879e-014
rhumerus -34.8569 46.2841 -113.389
rradius 99.3982
rwrist -4.19453
rhand 4.47762 -47.7491
rfingers 7.12502
rthumb 29.8716 -795.36
lclavicle 2.31957e-014 3.46879e-014
lhumerus -52.1878 -2.40487 95.8844
lradius 110.23
lwrist 74.6518
lhand -14.3272 7.12409
lfingers 7.12502
lthumb 11.8136 36.7709
rfemur -1.63518 24.7307 25.4943
rtibia 2.30091
rfoot -14.0301 -27.7608
rtoes 2.43904
lfemur 9.02104 -45.3164 -14.5783
ltibia -4.8266
lfoot -24.8803 52.9921
ltoes 9.86167
913
root 0.793345 17.3906 9.66038 9.35151 -1.73496 -8.84173
lowerback -4.56103 3.26342 6.88522
upperback -8.9416 4.47065 2.2205
thorax -6.50083 1.87159 -1.53989
lowerneck -3.74299 -5.27972 -2.00977
upperneck 9.23166 -7.53157 5.86865
head 4.04604 -3.55534 1.95418
rclavicle 6.11263e-015 -6.55989e-015
rhumerus -35.6352 45.6293 -114.107
rradius 99.3705
rwrist -3.7739
rhand 4.55347 -47.7559
rfingers 7.12502
rthumb 29.944 -795.353
lclavicle 6.11263e-015 -6.55989e-015
lhumerus -53.0818 -2.85725 95.8754
lradius 110.324
lwrist 74.7959
lhand -14.3211 6.99145
lfingers 7.12502
lthumb 11.8195 36.6379
rfemur -1.62263 24.7309 25.5551
rtibia 2.31676
rfoot -14.0329 -27.769
rtoes 2.41864
lfemur 9.05997 -45.3619 -14.5518
ltibia -4.84394
lfoot -24.9577 53.0308
ltoes 9.85797
914
root 0.792332 17.3897 9.66085 9.32782 -1.71094 -8.90501
lowerback -4.34916 3.27616 7.01286
upperback -9.12237 4.51967 2.1939
thorax -6.80729 1.87298 -1.65501
lowerneck -3.48563 -5.10681 -1.15547
upperneck 9.53854 -7.27712 4.89767
head 3.9978 -3.43899 1.4934
rclavicle -2.88238e-015 -4.96962e-016
rhumerus -35.9443 45.472 -114.474
rradius 99.3305
rwrist -3.50832
rhand 4.58602 -47.6526
rfingers 7.12502
rthumb 29.975 -795.244
lclavicle -2.88238e-015 -4.96962e-016
lhumerus -53.4766 -3.02745 95.8938
lradius 110.326
lwrist 74.8708
lhand -14.4442 7.08179
lfingers 7.12502
lthumb 11.7007 36.735
rfemur -1.57304 24.7869 25.6567
rtibia 2.30553
rfoot -14.0727 -27.8178
rtoes 2.58682
lfemur 9.12703 -45.3837 -14.5075
ltibia -4.8873
lfoot -24.8951 53.0433
ltoes 9.78776
915
root 0.791199 17.3893 9.66089 9.31499 -1.70269 -8.91656
lowerback -4.3264 3.27409 7.11463
upperback -9.18583 4.52143 2.15767
thorax -6.8813 1.8618 -1.75158
lowerneck -3.4163 -4.72742 -0.244875
upperneck 10.0144 -6.76518 4.05972
head 4.05306 -3.18082 1.0788
rclavicle -1.92821e-014 -2.27608e-014
rhumerus -35.9105 45.5613 -114.664
rradius 99.2795
rwrist -3.51997
rhand 4.56433 -47.5215
rfingers 7.12502
rthumb 29.9543 -795.117
lclavicle -1.92821e-014 -2.27608e-014
lhumerus -53.5948 -3.12806 95.8537
lradius 110.257
lwrist 74.8293
lhand -14.5352 7.17572
lfingers 7.12502
lthumb 11.613 36.8339
rfemur -1.54652 24.8376 25.6824
rtibia 2.27842
rfoot -14.1253 -27.8551
rtoes 2.72173
lfemur 9.13944 -45.3501 -14.4842
ltibia -4.90757
lfoot -24.7354 53.0325
ltoes 9.57984
916
root 0.792156 17.39 9.65877 9.31676 -1.76221 -8.84968
lowerback -4.23405 3.31459 7.27375
upperback -9.27561 4.58417 2.03151
thorax -7.00844 1.87062 -1.9788
lowerneck -3.94969 -4.18222 0.182881
upperneck 11.2246 -6.09565 3.80184
head 4.55072 -2.81518 0.932893
rclavicle -3.98066e-014 -1.45113e-014
rhumerus -35.7851 45.5987 -114.819
rradius 99.2284
rwrist -3.64915
rhand 4.66792 -47.3256
rfingers 7.12502
rthumb 30.0532 -794.903
lclavicle -3.98066e-014 -1.45113e-014
lhumerus -53.7251 -3.33636 95.7615
lradius 110.177
lwrist 74.7999
lhand -14.4575 7.13809
lfingers 7.12502
lthumb 11.6879 36.7921
rfemur -1.59039 24.7793 25.5715
rtibia 2.2955
rfoot -14.0974 -27.7607
rtoes 2.6414
lfemur 9.15468 -45.3954 -14.5998
ltibia -4.87824
lfoot -24.7917 53.1088
ltoes 9.44328
917
root 0.794962 17.3914 9.65677 9.33069 -1.82944 -8.7314
lowerback -4.36086 3.33114 7.27955
upperback -9.20531 4.58716 2.01684
thorax -6.85641 1.87788 -1.98749
lowerneck -4.86163 -3.38059 0.336729
upperneck 13.0436 -5.12891 3.91607
head 4.80775 -2.26981 0.86429
rclavicle -1.32937e-014 -1.54058e-014
rhumerus -35.46 45.9547 -114.747
rradius 99.1646
rwrist -3.66703
rhand 4.82687 -47.2603
rfingers 7.12502
rthumb 30.2048 -794.81
lclavicle -1.32937e-014 -1.54058e-014
lhumerus -53.5254 -3.36694 95.765
lradius 110.049
lwrist 74.819
lhand -14.4439 7.12511
lfingers 7.12502
lthumb 11.701 36.7783
rfemur -1.64648 24.6473 25.3866
rtibia 2.31709
rfoot -14.0089 -27.6143
rtoes 2.3619
lfemur 9.16413 -45.4773 -14.7901
ltibia -4.83694
lfoot -24.9205 53.191
ltoes 9.59584
